HIERARCHY
ROOT hip
{
  OFFSET 0 0 0
  CHANNELS 6 Xposition Yposition Zposition Zrotation Yrotation Xrotation
  JOINT abdomen
  {
    OFFSET 0 20.6881 -0.73152
    CHANNELS 3 Zrotation Xrotation Yrotation
    JOINT chest
    {
      OFFSET 0 11.7043 -0.48768
      CHANNELS 3 Zrotation Xrotation Yrotation
      JOINT neck
      {
        OFFSET 0 22.1894 -2.19456
        CHANNELS 3 Zrotation Xrotation Yrotation
        JOINT head
        {
          OFFSET -0.24384 7.07133 1.2192
          CHANNELS 3 Zrotation Xrotation Yrotation
          JOINT leftEye
          {
            OFFSET 4.14528 8.04674 8.04672
            CHANNELS 3 Zrotation Xrotation Yrotation
            End Site
            {
              OFFSET 1 0 0
            }
          }
          JOINT rightEye
          {
            OFFSET -3.6576 8.04674 8.04672
            CHANNELS 3 Zrotation Xrotation Yrotation
            End Site
            {
              OFFSET 1 0 0
            }
          }
        }
      }
      JOINT rCollar
      {
        OFFSET -2.68224 19.2634 -4.8768
        CHANNELS 3 Zrotation Xrotation Yrotation
        JOINT rShldr
        {
          OFFSET -8.77824 -1.95073 1.46304
          CHANNELS 3 Zrotation Xrotation Yrotation
          JOINT rForeArm
          {
            OFFSET -28.1742 -1.7115 0.48768
            CHANNELS 3 Zrotation Xrotation Yrotation
            JOINT rHand
            {
              OFFSET -22.5879 0.773209 7.07136
              CHANNELS 3 Zrotation Xrotation Yrotation
              JOINT rThumb1
              {
                OFFSET -1.2192 -0.487915 3.41376
                CHANNELS 3 Zrotation Xrotation Yrotation
                JOINT rThumb2
                {
                  OFFSET -3.37035 -0.52449 3.41376
                  CHANNELS 3 Zrotation Xrotation Yrotation
                  End Site
                  {
                    OFFSET -1.78271 -1.18214 1.43049
                  }
                }
              }
              JOINT rIndex1
              {
                OFFSET -7.75947 0.938293 5.60832
                CHANNELS 3 Zrotation Xrotation Yrotation
                JOINT rIndex2
                {
                  OFFSET -2.54057 -0.884171 1.56538
                  CHANNELS 3 Zrotation Xrotation Yrotation
                  End Site
                  {
                    OFFSET -1.62519 -0.234802 1.16502
                  }
                }
              }
              JOINT rMid1
              {
                OFFSET -8.24714 1.18213 3.41376
                CHANNELS 3 Zrotation Xrotation Yrotation
                JOINT rMid2
                {
                  OFFSET -3.10165 -0.590103 1.0647
                  CHANNELS 3 Zrotation Xrotation Yrotation
                  End Site
                  {
                    OFFSET -2.48547 -0.328903 0.83742
                  }
                }
              }
              JOINT rRing1
              {
                OFFSET -8.82822 0.546677 1.51678
                CHANNELS 3 Zrotation Xrotation Yrotation
                JOINT rRing2
                {
                  OFFSET -2.60934 -0.819778 -0.0198488
                  CHANNELS 3 Zrotation Xrotation Yrotation
                  End Site
                  {
                    OFFSET -2.33842 -0.294052 0.168128
                  }
                }
              }
              JOINT rPinky1
              {
                OFFSET -8.27202 -0.0477905 -0.4584
                CHANNELS 3 Zrotation Xrotation Yrotation
                JOINT rPinky2
                {
                  OFFSET -1.82734 -0.647385 -0.700984
                  CHANNELS 3 Zrotation Xrotation Yrotation
                  End Site
                  {
                    OFFSET -1.69225 -0.51767 -0.607171
                  }
                }
              }
            }
          }
        }
      }
      JOINT lCollar
      {
        OFFSET 2.68224 19.2634 -4.8768
        CHANNELS 3 Zrotation Xrotation Yrotation
        JOINT lShldr
        {
          OFFSET 8.77824 -1.95073 1.46304
          CHANNELS 3 Zrotation Xrotation Yrotation
          JOINT lForeArm
          {
            OFFSET 28.1742 -1.7115 0.48768
            CHANNELS 3 Zrotation Xrotation Yrotation
            JOINT lHand
            {
              OFFSET 22.5879 0.773209 7.07136
              CHANNELS 3 Zrotation Xrotation Yrotation
              JOINT lThumb1
              {
                OFFSET 1.2192 -0.487915 3.41376
                CHANNELS 3 Zrotation Xrotation Yrotation
                JOINT lThumb2
                {
                  OFFSET 3.37035 -0.52449 3.41376
                  CHANNELS 3 Zrotation Xrotation Yrotation
                  End Site
                  {
                    OFFSET 1.78271 -1.18214 1.43049
                  }
                }
              }
              JOINT lIndex1
              {
                OFFSET 7.75947 0.938293 5.60832
                CHANNELS 3 Zrotation Xrotation Yrotation
                JOINT lIndex2
                {
                  OFFSET 2.54057 -0.884171 1.56538
                  CHANNELS 3 Zrotation Xrotation Yrotation
                  End Site
                  {
                    OFFSET 1.62519 -0.234802 1.16502
                  }
                }
              }
              JOINT lMid1
              {
                OFFSET 8.24714 1.18213 3.41376
                CHANNELS 3 Zrotation Xrotation Yrotation
                JOINT lMid2
                {
                  OFFSET 3.10165 -0.590103 1.0647
                  CHANNELS 3 Zrotation Xrotation Yrotation
                  End Site
                  {
                    OFFSET 2.48547 -0.328903 0.83742
                  }
                }
              }
              JOINT lRing1
              {
                OFFSET 8.82822 0.546677 1.51678
                CHANNELS 3 Zrotation Xrotation Yrotation
                JOINT lRing2
                {
                  OFFSET 2.60934 -0.819778 -0.0198488
                  CHANNELS 3 Zrotation Xrotation Yrotation
                  End Site
                  {
                    OFFSET 2.33842 -0.294052 0.168128
                  }
                }
              }
              JOINT lPinky1
              {
                OFFSET 8.27202 -0.0477905 -0.4584
                CHANNELS 3 Zrotation Xrotation Yrotation
                JOINT lPinky2
                {
                  OFFSET 1.82734 -0.647385 -0.700984
                  CHANNELS 3 Zrotation Xrotation Yrotation
                  End Site
                  {
                    OFFSET 1.69225 -0.51767 -0.607171
                  }
                }
              }
            }
          }
        }
      }
    }
  }
  JOINT rButtock
  {
    OFFSET -8.77824 4.35084 1.2192
    CHANNELS 3 Zrotation Xrotation Yrotation
    JOINT rThigh
    {
      OFFSET 0 -1.70687 -2.19456
      CHANNELS 3 Zrotation Xrotation Yrotation
      JOINT rShin
      {
        OFFSET 0 -36.8199 0.73152
        CHANNELS 3 Zrotation Xrotation Yrotation
        JOINT rFoot
        {
          OFFSET 0.73152 -45.1104 -5.12064
          CHANNELS 3 Zrotation Xrotation Yrotation
          End Site
          {
            OFFSET -1.1221 -3.69964 12.103
          }
        }
      }
    }
  }
  JOINT lButtock
  {
    OFFSET 8.77824 4.35084 1.2192
    CHANNELS 3 Zrotation Xrotation Yrotation
    JOINT lThigh
    {
      OFFSET 0 -1.70687 -2.19456
      CHANNELS 3 Zrotation Xrotation Yrotation
      JOINT lShin
      {
        OFFSET 0 -36.8199 0.73152
        CHANNELS 3 Zrotation Xrotation Yrotation
        JOINT lFoot
        {
          OFFSET -0.73152 -45.1104 -5.12064
          CHANNELS 3 Zrotation Xrotation Yrotation
          End Site
          {
            OFFSET 1.1221 -3.69964 12.103
          }
        }
      }
    }
  }
}
MOTION
Frames:	5
Frame Time:	0.00833333
2.79085 83.6554 8.00305 0.0 0.0 0.0 -2.30017 -0.000942049 -0.0623528 -0.63448 0.00830844 -0.109828 -5.25881e-14 0.0 2.48481e-16 -1.57139e-13 9.54166e-15 7.9048e-16 -0.0 0.0 0.0 -0.0 0.0 0.0 -2.60938e-14 -1.99949e-16 1.49089e-16 -5.47565e-13 -4.64038e-15 1.98785e-15 -9.4627e-12 2.68001e-12 1.24042e-13 -1.08273e-10 -3.62469e-12 3.94389e-13 -2.55405e-10 -2.04767e-12 1.14818e-12 -4.41089e-10 -3.5336e-12 1.97115e-12 -2.554e-10 -2.04708e-12 1.13546e-12 7.73091 5.47488 0.417314 -2.55406e-10 -2.04768e-12 1.13864e-12 2.90554 0.965183 0.102902 -2.55393e-10 -2.04788e-12 1.13546e-12 10.2786 0.731801 0.0259123 -2.5541e-10 -2.0443e-12 1.13546e-12 2.22167 -0.733487 -0.20892 -2.61883e-14 -1.9762e-16 -4.96962e-17 -5.50446e-13 -4.34841e-15 -3.97569e-16 -9.45793e-12 -2.97322e-12 1.39944e-13 -1.08252e-10 2.05521e-12 3.75305e-13 -2.55354e-10 -1.99322e-12 1.13228e-12 -4.40981e-10 -3.44136e-12 1.96876e-12 -2.55357e-10 -1.99461e-12 1.15136e-12 -7.73091 5.47488 -0.417314 -2.55354e-10 -1.99302e-12 1.14182e-12 -2.90554 0.965183 -0.102902 -2.55356e-10 -1.99321e-12 1.14261e-12 -10.2786 0.731801 -0.0259123 -2.55351e-10 -1.99103e-12 1.13546e-12 -2.22167 -0.733487 0.20892 -2.03217e-16 0.0 -3.88251e-19 -1.28268 -1.92859 0.00418678 -0.00872956 -2.07863 -0.0717852 -0.462975 3.99877 0.133069 2.03217e-16 0.0 3.88251e-19 -2.21841 -7.92848 0.228508 -0.00571418 8.78921 -0.144991 0.50943 -0.869096 -0.0399073
2.26467 83.6948 8.07549 -2.0755 0.635 -1.2552 -2.63566 0.818457 0.232334 -0.562435 -1.53911 -0.0641479 -4.49039 2.95558 -3.28544 3.93408 -0.00905197 -6.10443 -0.0 0.0 0.0 -0.0 0.0 0.0 -1.6306e-14 8.68878e-15 -2.23206e-15 23.3786 9.43147 1.01957 -2.96018 -1.16496 4.80069 0.0237348 3.41855 0.477362 -2.61783e-10 1.04126e-10 -5.79766e-11 -4.53258e-10 1.79899e-10 -9.91543e-11 -2.61776e-10 1.04126e-10 -5.79894e-11 7.73091 5.47488 0.417314 -2.61786e-10 1.04128e-10 -5.7982e-11 2.90554 0.965183 0.102902 -2.61773e-10 1.04129e-10 -5.79852e-11 10.2786 0.731801 0.0259123 -2.61788e-10 1.04133e-10 -5.79823e-11 2.22167 -0.733487 -0.20892 -1.63843e-14 8.68928e-15 -2.40133e-15 -22.2675 6.23243 -0.614154 3.02797 -1.20177 -4.90165 -0.0104648 -2.26948 0.318052 -1.98628e-10 3.13469e-11 -1.44858e-11 -3.42583e-10 5.46764e-11 -2.54412e-11 -1.9863e-10 3.1347e-11 -1.44677e-11 -7.73091 5.47488 -0.417314 -1.98627e-10 3.13468e-11 -1.44789e-11 -2.90554 0.965183 -0.102902 -1.98631e-10 3.13468e-11 -1.44781e-11 -10.2786 0.731801 -0.0259123 -1.98623e-10 3.13492e-11 -1.44855e-11 -2.22167 -0.733487 0.20892 -2.03217e-16 0.0 -3.88251e-19 -1.60308 0.456317 3.15613 -0.00386778 -0.959007 -0.0254022 -0.692155 1.87938 -3.72961 2.03217e-16 0.0 3.88251e-19 -1.22081 -5.41101 -3.39995 -0.00143613 9.38271 -0.145458 0.610109 -2.85165 3.09498
2.26711 83.6941 8.0735 -2.0756 0.6598 -1.2482 -2.99825 1.68462 0.543676 -0.484349 -3.17493 -0.0159936 -8.86808 6.04815 -6.78814 8.09296 -0.0181098 -12.559 -0.0 0.0 0.0 -0.0 0.0 0.0 -6.84556e-15 1.86988e-14 -4.79257e-15 47.7072 19.3929 2.19593 -5.87717 -2.36872 9.88059 -0.0135286 7.02899 0.987308 -2.66531e-10 2.09197e-10 -1.13791e-10 -4.6263e-10 3.61401e-10 -1.94517e-10 -2.66522e-10 2.09196e-10 -1.13804e-10 7.73091 5.47488 0.417314 -2.66536e-10 2.09201e-10 -1.13793e-10 2.90554 0.965183 0.102902 -2.66523e-10 2.09202e-10 -1.13796e-10 10.2786 0.731801 0.0259123 -2.66537e-10 2.09207e-10 -1.1379e-10 2.22167 -0.733487 -0.20892 -6.90829e-15 1.86974e-14 -4.92924e-15 -45.6587 12.8183 -1.28881 6.00566 -2.44253 -10.0893 0.00595023 -4.66782 0.655857 -1.298e-10 7.45045e-11 -3.16761e-11 -2.23244e-10 1.29793e-10 -5.5571e-11 -1.298e-10 7.45063e-11 -3.1659e-11 -7.73091 5.47488 -0.417314 -1.29799e-10 7.45042e-11 -3.1672e-11 -2.90554 0.965183 -0.102902 -1.29804e-10 7.45043e-11 -3.16712e-11 -10.2786 0.731801 -0.0259123 -1.29793e-10 7.45069e-11 -3.16789e-11 -2.22167 -0.733487 0.20892 -2.03217e-16 0.0 -3.88251e-19 -2.22587 2.96251 6.4957 -0.000782453 0.222725 0.0235708 -1.24434 -0.352513 -7.80768 2.03217e-16 0.0 3.88251e-19 0.180514 -2.7491 -7.21171 0.00300025 10.0146 -0.145995 0.953141 -4.92569 6.42397
2.2675 83.6922 8.06816 -2.0754 0.666 -1.2249 -3.33195 2.45702 0.822392 -0.410933 -4.63396 0.0273704 -12.4497 8.74954 -9.96026 11.7966 -0.0259275 -18.3133 -0.0 0.0 0.0 -0.0 0.0 0.0 3.26978e-15 2.64662e-14 -6.99435e-15 69.0136 28.256 3.426 -8.30088 -3.39687 14.425 -0.102028 10.2528 1.45274 -2.74539e-10 3.16475e-10 -1.76226e-10 -4.77597e-10 5.46765e-10 -3.01405e-10 -2.74528e-10 3.16473e-10 -1.76239e-10 7.73091 5.47488 0.417314 -2.74546e-10 3.16481e-10 -1.76223e-10 2.90554 0.965183 0.102902 -2.74533e-10 3.16482e-10 -1.76226e-10 10.2786 0.731801 0.0259123 -2.74545e-10 3.16487e-10 -1.76218e-10 2.22167 -0.733487 -0.20892 3.22357e-15 2.64631e-14 -7.10461e-15 -66.3829 18.6885 -1.93356 8.4736 -3.49991 -14.7298 0.0446468 -6.80761 0.960177 -8.51756e-11 9.80271e-11 -4.5722e-11 -1.45788e-10 1.70912e-10 -8.02612e-11 -8.5175e-11 9.80302e-11 -4.57057e-11 -7.73091 5.47488 -0.417314 -8.51746e-11 9.80265e-11 -4.57203e-11 -2.90554 0.965183 -0.102902 -8.51806e-11 9.80268e-11 -4.57195e-11 -10.2786 0.731801 -0.0259123 -8.51686e-11 9.80296e-11 -4.57273e-11 -2.22167 -0.733487 0.20892 -2.03217e-16 0.0 -3.88251e-19 -3.02974 5.15693 9.49851 0.000420213 1.28025 0.0672969 -2.00272 -2.30075 -11.4577 2.03217e-16 0.0 3.88251e-19 1.72596 -0.39747 -10.6072 0.0071503 10.5697 -0.146443 1.46291 -6.738 9.41888
2.2827 83.6911 8.06217 -2.0052 0.6784 -1.2015 -3.57564 2.99528 1.01888 -0.354384 -5.65102 0.058551 -14.7642 10.5847 -12.2067 14.3657 -0.0317633 -22.3169 -0.0 0.0 0.0 -0.0 0.0 0.0 1.50225e-14 2.86271e-14 -8.29926e-15 83.5967 34.41 4.44364 -9.89716 -4.07912 17.6088 -0.195961 12.5127 1.78734 -2.90696e-10 4.2927e-10 -2.55211e-10 -5.06549e-10 7.41785e-10 -4.37104e-10 -2.90685e-10 4.29268e-10 -2.55224e-10 7.73091 5.47488 0.417314 -2.90704e-10 4.29276e-10 -2.55205e-10 2.90554 0.965183 0.102902 -2.90691e-10 4.29279e-10 -2.55208e-10 10.2786 0.731801 0.0259123 -2.90702e-10 4.29283e-10 -2.55198e-10 2.22167 -0.733487 -0.20892 1.4995e-14 2.86227e-14 -8.39865e-15 -80.7433 22.7779 -2.41688 10.0945 -4.19901 -17.9789 0.0852823 -8.30183 1.17506 -1.01064e-10 7.24618e-11 -5.19067e-11 -1.7304e-10 1.27038e-10 -9.13527e-11 -1.01063e-10 7.24658e-11 -5.18907e-11 -7.73091 5.47488 -0.417314 -1.01063e-10 7.24614e-11 -5.19067e-11 -2.90554 0.965183 -0.102902 -1.01069e-10 7.24617e-11 -5.19059e-11 -10.2786 0.731801 -0.0259123 -1.01056e-10 7.24646e-11 -5.1913e-11 -2.22167 -0.733487 0.20892 -2.03217e-16 0.0 -3.88251e-19 -3.7312 6.64218 11.6159 0.000732307 2.02724 0.0979014 -2.67568 -3.60985 -14.0195 2.03217e-16 0.0 3.88251e-19 2.96456 1.22295 -12.9762 0.0105599 10.933 -0.146628 1.92985 -7.96913 11.5294
